<?xml version="1.0" encoding="utf-8"?><svg xmlns="http://www.w3.org/2000/svg" xmlns:xlink="http://www.w3.org/1999/xlink" width="1411" height="721" preserveAspectRatio="xMidYMid" viewBox="0 0 1411 721" style="z-index:1;margin-right:-2px;display:block;background-repeat-y:initial;background-repeat-x:initial;background-color:rgb(255, 255, 255);animation-play-state:paused" ><g transform="" style="animation-play-state:paused" ><linearGradient id="lg-0.2435067319227937" x1="0" x2="1" y1="0" y2="0" style="animation-play-state:paused" ><stop stop-color="#03ab96" offset="0" style="animation-play-state:paused" ></stop>

  
<stop stop-color="#03ab96" offset="1" style="animation-play-state:paused" ></stop></linearGradient>
<path d="M 0 0 L 0 617.127 Q 100.786 517.09 201.571 488.439 T 403.143 389.558 T 604.714 326.785 T 806.286 187.699 T 1007.86 25.6594 T 1209.43 -161.557 T 1411 -195.058 L 1411 0 Z" fill="url(#lg-0.2435067319227937)" opacity="0.4" style="opacity:0.4;animation-play-state:paused" ></path>
<path d="M 0 0 L 0 605.313 Q 100.786 556.643 201.571 530.902 T 403.143 377.064 T 604.714 253.923 T 806.286 150.865 T 1007.86 67.3985 T 1209.43 -82.1048 T 1411 -206.723 L 1411 0 Z" fill="url(#lg-0.2435067319227937)" opacity="0.4" style="opacity:0.4;animation-play-state:paused" ></path>
<path d="M 0 0 L 0 661.741 Q 100.786 506.856 201.571 468.107 T 403.143 348.189 T 604.714 222.505 T 806.286 139.45 T 1007.86 12.4456 T 1209.43 -206.057 T 1411 -343.713 L 1411 0 Z" fill="url(#lg-0.2435067319227937)" opacity="0.4" style="opacity:0.4;animation-play-state:paused" ></path>
<path d="M 0 0 L 0 609.827 Q 100.786 602.025 201.571 570.705 T 403.143 356.214 T 604.714 279.981 T 806.286 132.31 T 1007.86 -2.38211 T 1209.43 -135.947 T 1411 -242.939 L 1411 0 Z" fill="url(#lg-0.2435067319227937)" opacity="0.4" style="opacity:0.4;animation-play-state:paused" ></path>
<path d="M 0 0 L 0 704.648 Q 100.786 536.539 201.571 498.689 T 403.143 411.524 T 604.714 234.689 T 806.286 117.521 T 1007.86 -80.4038 T 1209.43 -140.461 T 1411 -347.305 L 1411 0 Z" fill="url(#lg-0.2435067319227937)" opacity="0.4" style="opacity:0.4;animation-play-state:paused" ></path></g></svg>